# xmcd CD database file
#
# Track frame offsets:
#	150
#	24185
#	46748
#	60304
#	84731
#	103570
#	119876
#	129948
#	140841
#	160340
#	184589
#	227365
#	238984
#	263277
#
# Disc length: 3895 seconds
#
# Revision: 0
# Processed by: cddbd v1.5.2PL0 Copyright (c) Steve Scherf et al.
# Submitted via: CDex 1.51
#
DISCID=b00f350e
DTITLE=Jean Choudron - Bernard Désormières - Asparus
DYEAR=2006
DGENRE=Jazz
TTITLE0=Now's The Time
TTITLE1=Beautiful Love
TTITLE2=Take the A Train
TTITLE3=Asparus
TTITLE4=Samtin Doll
TTITLE5=Lush Life
TTITLE6=Crepuscule With Nelly
TTITLE7=Anatolan
TTITLE8=Profile
TTITLE9=Pathy Tutti
TTITLE10=Bye Bye Blackbird
TTITLE11=Take A Train (take 2)
TTITLE12=Autumn Leaves
TTITLE13=My Foolish Heart
EXTD=YEAR: 2006
EXTT0=
EXTT1=
EXTT2=
EXTT3=
EXTT4=
EXTT5=
EXTT6=
EXTT7=
EXTT8=
EXTT9=
EXTT10=
EXTT11=
EXTT12=
EXTT13=
PLAYORDER=
